<?xml version="1.0" standalone="no"?>
<!DOCTYPE svg PUBLIC "-//W3C//DTD SVG 20010904//EN"
 "http://www.w3.org/TR/2001/REC-SVG-20010904/DTD/svg10.dtd">
<svg version="1.0" xmlns="http://www.w3.org/2000/svg"
 width="156.000000pt" height="32.000000pt" viewBox="0 0 156.000000 32.000000"
 preserveAspectRatio="xMidYMid meet">

<g transform="translate(0.000000,32.000000) scale(0.100000,-0.100000)"
fill="#000000" stroke="none">
<path d="M0 306 c0 -8 14 -26 31 -40 28 -24 38 -26 125 -26 94 0 95 0 89 23
-14 46 -43 57 -147 57 -78 0 -98 -3 -98 -14z"/>
<path d="M340 270 c-11 -11 -20 -27 -20 -35 0 -8 -4 -15 -10 -15 -5 0 -10 -7
-10 -15 0 -8 5 -15 10 -15 6 0 10 -28 10 -65 0 -58 2 -65 20 -65 18 0 20 7 20
65 0 58 2 65 20 65 18 0 20 -7 20 -65 0 -51 3 -65 15 -65 12 0 15 16 15 80 l0
80 -35 0 c-28 0 -35 4 -35 20 0 16 7 20 35 20 24 0 35 5 35 15 0 23 -66 19
-90 -5z"/>
<path d="M770 175 c0 -96 3 -115 15 -115 11 0 15 13 15 54 0 52 16 86 40 86
24 0 40 -34 40 -86 0 -41 4 -54 15 -54 24 0 21 121 -3 143 -22 20 -63 22 -80
5 -9 -9 -12 -2 -12 35 0 35 -4 47 -15 47 -12 0 -15 -19 -15 -115z"/>
<path d="M1010 145 l0 -85 39 0 c53 0 69 8 86 41 21 39 19 72 -6 103 -17 22
-28 26 -70 26 l-49 0 0 -85z m102 53 c35 -54 13 -111 -45 -116 l-37 -3 0 72 0
72 37 -6 c20 -4 40 -12 45 -19z"/>
<path d="M25 195 c-22 -21 -25 -33 -25 -90 0 -72 9 -80 53 -45 15 12 29 36 33
55 5 27 11 35 28 35 23 0 66 38 66 58 0 8 -22 12 -65 12 -57 0 -69 -3 -90 -25z"/>
<path d="M450 140 c0 -64 3 -80 15 -80 12 0 15 13 15 60 0 48 4 61 19 70 41
21 61 -7 61 -87 0 -32 4 -43 15 -43 21 0 21 107 -1 138 -17 24 -62 30 -82 10
-9 -9 -12 -9 -12 0 0 7 -7 12 -15 12 -12 0 -15 -16 -15 -80z"/>
<path d="M620 200 c-22 -22 -27 -78 -10 -109 5 -10 23 -24 40 -31 35 -15 84 0
100 31 15 28 -8 35 -34 10 -27 -26 -48 -27 -69 -3 -23 25 -21 58 3 82 25 25
35 25 61 -1 11 -11 27 -19 36 -17 12 2 11 8 -7 31 -27 34 -89 38 -120 7z"/>
<path d="M1186 168 c-33 -46 -7 -108 44 -108 32 0 60 31 60 65 0 34 -28 65
-60 65 -18 0 -34 -8 -44 -22z m80 -22 c10 -41 -4 -66 -36 -66 -32 0 -46 25
-36 66 9 35 63 35 72 0z"/>
<path d="M1327 172 c-22 -25 -21 -75 1 -95 26 -23 69 -22 82 3 12 23 3 25 -24
5 -31 -23 -58 -2 -54 43 2 30 7 38 27 40 13 2 28 -1 34 -7 18 -18 28 -12 17 9
-14 26 -61 27 -83 2z"/>
<path d="M1450 175 c-18 -22 -6 -42 37 -60 36 -15 37 -17 19 -30 -13 -10 -24
-11 -37 -5 -26 14 -33 12 -19 -5 16 -19 64 -19 80 0 18 22 6 42 -35 59 -19 8
-35 19 -35 24 0 16 32 23 47 11 15 -13 28 -6 18 10 -9 16 -61 13 -75 -4z"/>
</g>
</svg>
